<svg width="113" height="32" viewBox="0 0 113 32" fill="none" xmlns="http://www.w3.org/2000/svg">
<path d="M51.4266 13.1401C51.3487 12.9598 51.2449 12.8309 51.1151 12.7279C50.9594 12.6248 50.8036 12.5733 50.6479 12.5733C50.4662 12.5475 50.3104 12.599 50.1547 12.7021C49.9989 12.8052 49.8691 12.9598 49.8172 13.1401L46.2609 21.591C46.2349 21.6941 46.209 21.7713 46.209 21.8486C46.209 22.0548 46.2609 22.2351 46.3907 22.3639C46.5205 22.4928 46.7022 22.5701 46.9618 22.5701C47.1175 22.5701 47.2733 22.5185 47.4031 22.4155C47.5329 22.3124 47.6367 22.1836 47.7146 22.0032L48.4414 20.277H52.6986L53.4254 21.9775C53.5033 22.1578 53.6071 22.2866 53.7369 22.3897C53.8667 22.4928 54.0225 22.5443 54.2042 22.5443C54.4118 22.5443 54.5935 22.467 54.7493 22.3124C54.905 22.1578 55.0089 21.9517 55.0089 21.6941C55.0089 21.591 54.9829 21.4879 54.931 21.3591L51.4266 13.1401ZM49.1423 18.6796L50.57 15.3817L51.9977 18.6796H49.1423Z" fill="#128EBF"/>
<path d="M57.0857 12.0837C56.8261 12.0837 56.6444 12.161 56.4627 12.3414C56.307 12.496 56.2031 12.7021 56.2031 12.9597V21.694C56.2031 21.9517 56.281 22.1321 56.4367 22.3124C56.5925 22.467 56.8002 22.5701 57.0338 22.5701C57.2674 22.5701 57.4751 22.4928 57.6568 22.3124C57.8125 22.1578 57.9164 21.9517 57.9164 21.694V12.934C57.9164 12.6763 57.8385 12.496 57.6828 12.3156C57.527 12.161 57.3453 12.0837 57.0857 12.0837Z" fill="#128EBF"/>
<path d="M63.3414 16.6699C63.575 16.6699 63.7567 16.5926 63.9125 16.4637C64.0682 16.3092 64.1461 16.1288 64.1461 15.9227C64.1461 15.6908 64.0682 15.5104 63.9125 15.3559C63.7567 15.2013 63.575 15.124 63.3414 15.124H62.329V14.2222C62.329 13.9903 62.2512 13.7842 62.0954 13.6038C61.9397 13.4493 61.732 13.3462 61.4984 13.3462C61.2388 13.3462 61.0571 13.4235 60.8754 13.6038C60.7196 13.7584 60.6158 13.9645 60.6158 14.2222V15.124H59.9668C59.7332 15.124 59.5515 15.2013 59.3957 15.3301C59.24 15.4847 59.1621 15.665 59.1621 15.8712C59.1621 16.103 59.24 16.2834 59.3957 16.438C59.5515 16.5926 59.7332 16.6699 59.9668 16.6699H60.6158V20.5604C60.6158 21.0241 60.6937 21.3848 60.8234 21.6425C60.9532 21.9001 61.1349 22.1063 61.3686 22.2351C61.5762 22.3639 61.8099 22.4412 62.0435 22.467C62.2771 22.4927 62.5107 22.5185 62.7184 22.5185C63.0559 22.5185 63.3674 22.4412 63.6529 22.2608C63.9384 22.0805 64.0942 21.8744 64.0942 21.6167C64.0942 21.4106 64.0423 21.2302 63.9384 21.1014C63.8346 20.9726 63.7048 20.9211 63.575 20.9211C63.4452 20.9211 63.3414 20.9468 63.2376 20.9726C63.1337 21.0241 63.0299 21.0241 62.9261 21.0241C62.8222 21.0241 62.7184 20.9984 62.6405 20.9726C62.5627 20.9468 62.4848 20.8695 62.4329 20.7922C62.3809 20.7149 62.355 20.6119 62.355 20.4573V16.6699H63.3414Z" fill="#128EBF"/>
<path d="M71.3627 15.9485C71.0252 15.6135 70.6358 15.3301 70.2205 15.124C69.7792 14.9179 69.3379 14.8148 68.8447 14.8148C68.2217 14.8148 67.6247 14.9694 67.0536 15.3044C66.4825 15.6393 66.0412 16.0773 65.7037 16.6699C65.3663 17.2625 65.1846 17.9839 65.1846 18.8341C65.1846 19.5556 65.3403 20.1997 65.6518 20.7923C65.9633 21.3591 66.4306 21.8229 67.0276 22.1578C67.6247 22.4928 68.3255 22.6473 69.1302 22.6473C69.5975 22.6473 70.0647 22.5701 70.506 22.4155C70.9473 22.2609 71.3108 22.0805 71.5444 21.8744C71.804 21.6683 71.9338 21.4364 71.9338 21.1787C71.9338 20.9984 71.8559 20.818 71.7261 20.6892C71.5963 20.5604 71.4146 20.4831 71.2069 20.4831C71.0512 20.4831 70.8954 20.5346 70.7137 20.6119C70.6099 20.6635 70.506 20.7407 70.3763 20.818C70.2465 20.8953 70.0907 20.9726 69.883 21.0242C69.6754 21.0757 69.3898 21.1015 69.0524 21.1015C68.663 21.1015 68.3255 20.9984 67.9881 20.818C67.6506 20.6377 67.3651 20.3543 67.1574 20.0193C67.0276 19.8132 66.9497 19.5813 66.8978 19.3237H71.5963C71.8299 19.3237 72.0116 19.2464 72.1933 19.1176C72.375 18.9887 72.4529 18.7826 72.4529 18.5765C72.4529 18.0612 72.3491 17.5974 72.1674 17.1337C71.9597 16.6957 71.7001 16.2834 71.3627 15.9485ZM67.417 16.876C67.5987 16.6957 67.8064 16.5668 68.066 16.4895C68.2996 16.4122 68.5851 16.3865 68.8707 16.3865C69.1562 16.3865 69.4417 16.438 69.7013 16.5668C69.9609 16.6957 70.1686 16.876 70.3503 17.0821C70.532 17.2883 70.6358 17.5459 70.6358 17.8035V17.9066H66.8978C66.9238 17.8035 66.9497 17.6747 66.9757 17.5717C67.1055 17.2882 67.2353 17.0564 67.417 16.876Z" fill="#128EBF"/>
<path d="M80.7076 15.0725C80.5519 14.9179 80.3442 14.8406 80.0846 14.8406C79.8251 14.8406 79.6433 14.9179 79.4616 15.0982C79.3059 15.2528 79.228 15.4589 79.228 15.7166C79.1501 15.6393 79.0463 15.562 78.9425 15.4847C78.6829 15.3043 78.3973 15.1498 78.0599 15.0209C77.7224 14.8921 77.333 14.8406 76.9437 14.8406C76.3207 14.8406 75.7236 14.9952 75.2045 15.3301C74.6853 15.6651 74.27 16.1288 73.9585 16.7214C73.647 17.314 73.4912 17.9839 73.4912 18.7568C73.4912 19.5298 73.647 20.1997 73.9585 20.7923C74.27 21.3849 74.6853 21.8486 75.2304 22.1836C75.7496 22.5185 76.3466 22.6731 77.0216 22.6731C77.385 22.6731 77.7224 22.6216 78.0339 22.4928C78.3454 22.3639 78.605 22.2351 78.8386 22.0547C79.0203 21.9259 79.1501 21.7971 79.254 21.6683C79.254 21.9002 79.3318 22.1063 79.4876 22.2609C79.6433 22.4155 79.851 22.5185 80.1106 22.5185C80.3702 22.5185 80.5519 22.4412 80.7336 22.2609C80.8893 22.1063 80.9672 21.9002 80.9672 21.6425V15.6908C80.9413 15.4332 80.8634 15.2271 80.7076 15.0725ZM79.0463 19.9678C78.8646 20.3285 78.631 20.6119 78.3195 20.818C78.008 21.0242 77.6445 21.1272 77.2292 21.1272C76.8139 21.1272 76.4505 21.0242 76.139 20.818C75.8275 20.6119 75.5938 20.3285 75.4121 19.9678C75.2304 19.6071 75.1525 19.2206 75.1525 18.7568C75.1525 18.2931 75.2304 17.9066 75.4121 17.5459C75.5938 17.1852 75.8275 16.9018 76.139 16.6956C76.4505 16.4895 76.8139 16.3865 77.2292 16.3865C77.6445 16.3865 78.008 16.4895 78.3195 16.6956C78.631 16.9018 78.8646 17.1852 79.0463 17.5459C79.228 17.9066 79.3059 18.3188 79.3059 18.7568C79.3059 19.1948 79.228 19.6071 79.0463 19.9678Z" fill="#128EBF"/>
<path d="M89.3783 20.5604C89.1706 20.5346 88.9889 20.5604 88.7812 20.6634C88.5476 20.7922 88.288 20.8695 88.0285 20.9211C87.7689 20.9726 87.5093 20.9984 87.2497 20.9984C86.7825 20.9984 86.3412 20.9211 85.9518 20.7922C85.5624 20.6634 85.199 20.4573 84.9134 20.1739C84.6279 19.8905 84.3943 19.5298 84.2126 19.1175C84.0568 18.7053 83.953 18.19 83.953 17.6232C83.953 17.1336 84.0309 16.6956 84.1607 16.2834C84.3164 15.8711 84.5241 15.5362 84.8096 15.227C85.0952 14.9178 85.4326 14.7117 85.848 14.5314C86.2633 14.3768 86.7046 14.2995 87.2237 14.2995C87.5093 14.2995 87.7689 14.3252 88.0025 14.3768C88.2621 14.4283 88.4957 14.5056 88.7293 14.6087C88.937 14.7117 89.1187 14.7375 89.3264 14.7117C89.5081 14.686 89.6898 14.6087 89.7936 14.4283C89.9753 14.2222 90.0532 13.9645 90.0013 13.7069C89.9494 13.4492 89.8196 13.2431 89.56 13.1401C89.1966 12.9597 88.8332 12.8309 88.4438 12.7278C88.0544 12.6248 87.6391 12.599 87.2237 12.599C86.4969 12.599 85.796 12.7278 85.173 12.9855C84.55 13.2431 84.0049 13.5781 83.5376 14.0418C83.0704 14.4798 82.7329 15.0209 82.4734 15.6393C82.2138 16.2576 82.084 16.9275 82.084 17.6489C82.084 18.4992 82.2138 19.2206 82.4993 19.8647C82.7849 20.5088 83.1483 21.0241 83.6415 21.4621C84.1087 21.8744 84.6539 22.2093 85.2769 22.4154C85.8999 22.6215 86.5488 22.7504 87.2237 22.7504C87.5093 22.7504 87.7689 22.7246 88.0285 22.6988C88.288 22.6473 88.5476 22.5958 88.8072 22.5185C89.0668 22.4412 89.3264 22.3381 89.56 22.2093C89.7936 22.1062 89.9494 21.9259 90.0013 21.6682C90.0532 21.4106 89.9753 21.1787 89.7936 20.9468C89.7417 20.6892 89.586 20.5861 89.3783 20.5604Z" fill="#43BEAE"/>
<path d="M97.6071 14.8406C97.3475 14.8406 97.1658 14.9179 96.9841 15.0982C96.8284 15.2528 96.7505 15.4589 96.7505 15.7166C96.6726 15.6393 96.5688 15.562 96.4649 15.4847C96.2054 15.3043 95.9198 15.1498 95.5824 15.0209C95.2449 14.8921 94.8555 14.8406 94.4661 14.8406C93.8431 14.8406 93.2461 14.9952 92.7269 15.3301C92.2078 15.6651 91.7924 16.1288 91.4809 16.7214C91.1694 17.314 91.0137 17.9839 91.0137 18.7568C91.0137 19.5298 91.1694 20.1997 91.4809 20.7923C91.7924 21.3849 92.2078 21.8486 92.7529 22.1836C93.272 22.5185 93.8691 22.6731 94.544 22.6731C94.9074 22.6731 95.2449 22.6216 95.5564 22.4928C95.8679 22.3639 96.1275 22.2351 96.3611 22.0547C96.5428 21.9259 96.6726 21.7971 96.7764 21.6683C96.7764 21.9002 96.8543 22.1063 97.0101 22.2609C97.1658 22.4155 97.3735 22.5185 97.6331 22.5185C97.8667 22.5185 98.0744 22.4412 98.2561 22.2609C98.4118 22.1063 98.4897 21.9002 98.4897 21.6425V15.6908C98.4897 15.4332 98.4118 15.2271 98.2561 15.0725C98.0484 14.9179 97.8407 14.8406 97.6071 14.8406ZM96.5688 19.9678C96.3871 20.3285 96.1534 20.6119 95.8419 20.818C95.5304 21.0242 95.167 21.1272 94.7517 21.1272C94.3363 21.1272 93.9729 21.0242 93.6614 20.818C93.3499 20.6119 93.1163 20.3285 92.9346 19.9678C92.7529 19.6071 92.675 19.2206 92.675 18.7568C92.675 18.2931 92.7529 17.9066 92.9346 17.5459C93.1163 17.1852 93.3499 16.9018 93.6614 16.6956C93.9729 16.4895 94.3363 16.3865 94.7517 16.3865C95.167 16.3865 95.5304 16.4895 95.8419 16.6956C96.1534 16.9018 96.3871 17.1852 96.5688 17.5459C96.7505 17.9066 96.8284 18.3188 96.8284 18.7568C96.8284 19.1948 96.7245 19.6071 96.5688 19.9678Z" fill="#43BEAE"/>
<path d="M104.979 15.0725C104.771 14.9179 104.537 14.8406 104.252 14.8406C104.018 14.8406 103.785 14.8663 103.551 14.9179C103.317 14.9694 103.084 15.0725 102.876 15.1755C102.668 15.3043 102.487 15.4332 102.305 15.6135C102.175 15.7423 102.097 15.8712 101.994 16.0258V15.8196C101.994 15.5878 101.916 15.3816 101.76 15.2013C101.604 15.0467 101.396 14.9436 101.137 14.9436C100.877 14.9436 100.696 15.0209 100.514 15.2013C100.358 15.3559 100.28 15.562 100.28 15.8196V21.6425C100.28 21.9002 100.358 22.0805 100.514 22.2609C100.67 22.4155 100.877 22.5185 101.137 22.5185C101.371 22.5185 101.578 22.4412 101.76 22.2609C101.916 22.1063 101.994 21.9002 101.994 21.6425V18.2931C101.994 17.9581 102.045 17.649 102.123 17.4171C102.201 17.1594 102.331 16.9533 102.487 16.7987C102.642 16.6184 102.798 16.5153 102.98 16.4122C103.162 16.3349 103.317 16.2834 103.499 16.2834C103.681 16.2834 103.863 16.3092 103.992 16.3865C104.148 16.4638 104.304 16.4895 104.486 16.4895C104.667 16.4895 104.849 16.4122 105.005 16.2834C105.16 16.1546 105.238 15.9227 105.238 15.6135C105.264 15.4332 105.186 15.2271 104.979 15.0725Z" fill="#43BEAE"/>
<path d="M112.741 19.1176C112.922 18.9887 113 18.7826 113 18.5765C113 18.0612 112.896 17.5974 112.715 17.1337C112.507 16.6699 112.247 16.2834 111.936 15.9485C111.598 15.6135 111.209 15.3301 110.794 15.124C110.352 14.9179 109.911 14.8148 109.418 14.8148C108.795 14.8148 108.198 14.9694 107.627 15.3044C107.056 15.6135 106.614 16.0773 106.277 16.6699C105.94 17.2625 105.758 17.9839 105.758 18.8341C105.758 19.5556 105.914 20.1997 106.225 20.7923C106.537 21.3591 107.004 21.8229 107.601 22.1578C108.198 22.4928 108.899 22.6473 109.703 22.6473C110.171 22.6473 110.638 22.5701 111.079 22.4155C111.521 22.2609 111.884 22.0805 112.118 21.8744C112.377 21.6683 112.507 21.4364 112.507 21.1787C112.507 20.9984 112.429 20.818 112.299 20.6892C112.17 20.5604 111.988 20.4831 111.78 20.4831C111.624 20.4831 111.469 20.5346 111.287 20.6119C111.183 20.6635 111.079 20.7407 110.949 20.818C110.82 20.8953 110.664 20.9726 110.456 21.0242C110.249 21.0757 109.963 21.1015 109.626 21.1015C109.236 21.1015 108.899 20.9984 108.561 20.818C108.224 20.6377 107.938 20.3543 107.731 20.0193C107.601 19.8132 107.523 19.5813 107.471 19.3237H112.144C112.351 19.3494 112.559 19.2721 112.741 19.1176ZM107.964 16.876C108.146 16.6957 108.354 16.5668 108.613 16.4895C108.847 16.4122 109.132 16.3865 109.418 16.3865C109.703 16.3865 109.989 16.438 110.249 16.5668C110.508 16.6957 110.716 16.876 110.898 17.0821C111.079 17.2883 111.157 17.5459 111.183 17.8035V17.9066H107.445C107.471 17.8035 107.497 17.6747 107.523 17.5717C107.627 17.2882 107.783 17.0564 107.964 16.876Z" fill="#43BEAE"/>
<path d="M26.4281 32H16.3043C7.27076 32 -0.153344 24.7085 0.00240678 15.7166C0.158157 7.03382 7.32268 0 16.1226 0C20.4576 0 24.4812 1.54589 27.4924 4.35427C30.1661 6.85346 31.8014 10.1771 32.1649 13.81C32.2427 14.6602 31.5678 15.4074 30.7112 15.4074C29.9584 15.4074 29.3354 14.8663 29.2575 14.1192C28.972 11.182 27.6481 8.50242 25.4936 6.46699C23.0275 4.17391 19.7048 2.91143 16.1226 2.91143C9.03593 2.91143 3.22125 8.47665 2.93571 15.4589C2.59825 22.9308 8.75039 29.1143 16.2783 29.1143H26.4021C27.2068 29.1143 27.8558 29.7585 27.8558 30.5572C27.8817 31.3559 27.2328 32 26.4281 32Z" fill="#43BEAE"/>
<path d="M13.0077 16C13.0077 16.8502 12.3069 17.5717 11.4243 17.5717C10.5677 17.5717 9.84082 16.876 9.84082 16C9.84082 15.1498 10.5417 14.4541 11.4243 14.4541C12.3069 14.4541 13.0077 15.1498 13.0077 16Z" fill="#128EBF"/>
<path d="M17.6025 16C17.6025 16.8502 16.9016 17.5717 16.019 17.5717C15.1624 17.5717 14.4355 16.876 14.4355 16C14.4355 15.1498 15.1364 14.4541 16.019 14.4541C16.9016 14.4541 17.6025 15.1498 17.6025 16Z" fill="#128EBF"/>
<path d="M22.4052 16C22.4052 16.8502 21.7043 17.5717 20.8217 17.5717C19.9651 17.5717 19.2383 16.876 19.2383 16C19.2383 15.1498 19.9392 14.4541 20.8217 14.4541C21.7043 14.4541 22.4052 15.1498 22.4052 16Z" fill="#128EBF"/>
<path d="M36.9413 22.802H32.3207V18.2158C32.3207 17.3913 31.6458 16.6957 30.7892 16.6957C29.9585 16.6957 29.2576 17.3656 29.2576 18.2158V22.802H24.637C23.8063 22.802 23.1055 23.4718 23.1055 24.3221C23.1055 25.1723 23.7804 25.8422 24.637 25.8422H29.2576V30.4284C29.2576 31.2528 29.9325 31.9485 30.7892 31.9485C31.6198 31.9485 32.3207 31.2786 32.3207 30.4284V25.8422H36.9413C37.772 25.8422 38.4728 25.1723 38.4728 24.3221C38.4728 23.4718 37.772 22.802 36.9413 22.802Z" fill="#72CEED"/>
</svg>
